<svg width="212" height="212" viewBox="0 0 212 212" fill="none" xmlns="http://www.w3.org/2000/svg">
<g clip-path="url(#clip0_580_6)">
<path d="M95.6897 15.1547C73.9929 17.7633 53.414 29.7297 40.578 47.0789L37.4725 51.3023L37.2655 40.0398C37.0999 30.0609 36.9757 28.6117 36.3132 27.618C33.746 23.6844 27.6593 24.0156 25.589 28.1562C24.9265 29.4812 24.8436 31.3031 24.8436 48.1141V66.6641H21.0757C10.31 66.6641 3.02255 71.757 0.620985 81.032C-0.289953 84.5516 -0.289953 111.797 0.662391 115.316C1.78036 119.705 5.25848 124.384 9.02645 126.579C12.7116 128.773 15.1132 129.188 23.6015 129.188H31.4272L33.2905 131.63C39.0046 139.001 46.8718 144.135 56.4366 146.702L59.8319 147.613H106H152.168L155.894 146.661C159.994 145.584 166.08 142.852 169.227 140.74C171.877 138.918 176.473 134.529 178.709 131.589L180.531 129.229L189.144 129.063C193.864 128.98 198.129 128.773 198.667 128.566L199.619 128.235L199.495 140.202C199.33 151.133 199.247 152.416 198.419 154.859C195.851 162.561 189.723 168.772 181.773 171.587L178.254 172.871L167.198 172.995L156.143 173.12L154.983 170.718C153.576 167.778 149.601 163.72 146.868 162.354C143.1 160.532 141.112 160.242 131.796 160.242C122.397 160.242 119.954 160.573 116.351 162.23C113.37 163.637 109.354 167.654 107.946 170.677C102.77 181.649 109.064 194.527 120.823 197.052C122.066 197.301 126.786 197.508 131.796 197.508C141.112 197.508 143.1 197.218 146.868 195.396C149.394 194.154 153.534 190.013 154.776 187.446L155.729 185.5H165.998C173.244 185.5 177.343 185.334 179.827 184.879C194.651 182.312 206.741 171.339 210.84 156.723C211.793 153.41 211.793 153.286 211.917 118.67C212 95.193 211.876 83.2266 211.586 81.7773C210.923 78.6719 209.06 75.0281 206.99 72.7922C203.139 68.6516 197.963 66.6641 190.924 66.6641H187.156V48.1141C187.156 31.3031 187.073 29.4812 186.411 28.1562C184.34 24.0156 178.254 23.6844 175.687 27.618C175.024 28.6117 174.9 30.0609 174.734 40.0398L174.527 51.3851L171.422 47.1617C154.28 23.85 125.212 11.5938 95.6897 15.1547ZM113.246 27.3281C137.344 30.0195 157.882 44.4703 168.109 65.9187C173.161 76.5602 174.734 84.593 174.734 100.327C174.734 111.134 174.279 114.033 171.587 119.581C170.055 122.77 169.144 124.053 166.246 126.91C163.389 129.809 162.105 130.72 158.917 132.252C152.126 135.523 154.197 135.398 106 135.398C57.803 135.398 59.8733 135.523 53.0827 132.252C49.8944 130.72 48.6108 129.809 45.7538 126.91C42.8554 124.053 41.9444 122.77 40.4124 119.581C37.721 113.991 37.2655 111.176 37.2655 100.037C37.2655 83.8891 39.0874 75.0281 44.553 64.0555C57.1819 38.9633 84.8413 24.1812 113.246 27.3281ZM24.8436 94.4891C24.8436 108.153 25.1335 113.37 25.9202 116.062C26.1686 116.807 25.8374 116.848 21.1999 116.683C15.61 116.559 14.6163 116.145 13.2085 113.453C12.5046 112.128 12.4218 110.845 12.4218 98.257C12.4218 84.0133 12.5046 83.0609 14.2022 81.1977C15.6515 79.6242 17.3077 79.1273 21.2413 79.0859H24.8436V94.4891ZM196.514 80.1625C197.135 80.618 198.046 81.5289 198.501 82.15C199.33 83.2266 199.371 83.8891 199.495 97.6359C199.578 111.01 199.537 112.087 198.833 113.453C197.342 116.145 196.39 116.559 190.8 116.683C186.121 116.848 185.831 116.807 186.08 116.062C186.866 113.577 187.156 107.78 187.156 94.282V79.0031L191.255 79.1687C194.651 79.2516 195.603 79.4586 196.514 80.1625ZM141.195 173.492C143.058 174.445 144.508 176.805 144.508 178.875C144.508 180.945 143.058 183.305 141.195 184.258C139.746 185.003 138.752 185.086 131.465 185.086C122.066 185.086 120.741 184.713 119.25 181.773C118.215 179.703 118.215 178.047 119.25 175.977C120.741 173.037 121.941 172.705 131.382 172.664C138.794 172.664 139.746 172.747 141.195 173.492Z" fill="black"/>
<path d="M74.4896 61.9023C71.1357 62.5648 67.4506 64.0141 64.3037 65.8773C61.281 67.6992 56.1052 72.875 54.2834 75.8977C48.8177 85.1312 48.2381 95.9383 52.7513 105.379C55.6912 111.548 60.7013 116.683 66.8709 119.705C73.3716 122.894 71.881 122.77 106 122.77C140.119 122.77 138.628 122.894 145.129 119.705C151.298 116.683 156.308 111.548 159.248 105.379C161.443 100.783 162.064 97.7601 162.064 92.1289C162.064 86.4977 161.443 83.475 159.248 78.8789C156.308 72.668 151.257 67.575 145.129 64.5523C138.628 61.3641 140.367 61.5297 107.035 61.4469C83.4748 61.3641 76.6427 61.4469 74.4896 61.9023ZM135.936 74.3242C139.373 75.1937 141.444 76.3945 144.094 78.9203C151.795 86.2492 151.795 98.0086 144.094 105.337C141.444 107.863 139.373 109.064 135.936 109.934C132.334 110.886 79.5826 110.845 75.9802 109.892C66.2084 107.366 60.2045 97.2633 62.7302 87.5742C64.3865 81.2805 69.5623 76.0219 75.7732 74.3656C79.2099 73.4547 132.458 73.4133 135.936 74.3242Z" fill="black"/>
<path d="M79.1687 84.3446C76.6843 85.5453 75.9804 87.0774 75.8562 91.5906C75.6905 96.1453 76.2702 97.9672 78.4233 99.4992C80.1624 100.741 83.5163 100.783 85.1312 99.5406C87.4913 97.8016 87.9882 96.6836 88.1124 92.7086C88.2366 89.6031 88.1538 88.775 87.3671 87.2016C85.9179 84.1375 82.1913 82.8539 79.1687 84.3446Z" fill="black"/>
<path d="M126.993 84.5516C124.757 85.8766 123.805 88.1125 123.805 92.1289C123.805 96.4766 124.757 98.5469 127.366 99.8305C129.602 100.866 131.838 100.741 133.659 99.4164C135.564 98.05 136.227 96.2281 136.227 92.1289C136.227 88.0297 135.564 86.2078 133.618 84.8C131.796 83.5164 128.939 83.3922 126.993 84.5516Z" fill="black"/>
</g>
<defs>
<clipPath id="clip0_580_6">
<rect width="212" height="212" fill="white"/>
</clipPath>
</defs>
</svg>
